<?xml version="1.0" encoding="UTF-8"?>
<!-- Do not edit this file with editors other than draw.io -->
<!DOCTYPE svg PUBLIC "-//W3C//DTD SVG 1.1//EN" "http://www.w3.org/Graphics/SVG/1.1/DTD/svg11.dtd">
<svg xmlns="http://www.w3.org/2000/svg" style="background: #FF9999; background-color: light-dark(#FF9999, #9d4545); color-scheme: light dark;" xmlns:xlink="http://www.w3.org/1999/xlink" version="1.1" width="651px" height="342px" viewBox="0 0 651 342" content="&lt;mxfile host=&quot;app.diagrams.net&quot;&gt;&#10;  &lt;diagram name=&quot;Page-1&quot; id=&quot;3MgCfNu95vDcrpPl226B&quot;&gt;&#10;    &lt;mxGraphModel dx=&quot;574&quot; dy=&quot;461&quot; grid=&quot;1&quot; gridSize=&quot;10&quot; guides=&quot;1&quot; tooltips=&quot;1&quot; connect=&quot;1&quot; arrows=&quot;1&quot; fold=&quot;1&quot; page=&quot;1&quot; pageScale=&quot;1&quot; pageWidth=&quot;850&quot; pageHeight=&quot;1100&quot; background=&quot;#FF9999&quot; math=&quot;0&quot; shadow=&quot;0&quot;&gt;&#10;      &lt;root&gt;&#10;        &lt;mxCell id=&quot;0&quot; /&gt;&#10;        &lt;mxCell id=&quot;1&quot; parent=&quot;0&quot; /&gt;&#10;        &lt;mxCell id=&quot;USofJIjJ_PWCHfEqHJ_Q-2&quot; parent=&quot;1&quot; style=&quot;verticalLabelPosition=bottom;html=1;verticalAlign=top;aspect=fixed;align=center;pointerEvents=1;shape=mxgraph.cisco.routers.router;fillColor=#0050ef;strokeColor=#001DBC;fontColor=#ffffff;rounded=0;&quot; value=&quot;Router 1 (Gateway)&quot; vertex=&quot;1&quot;&gt;&#10;          &lt;mxGeometry height=&quot;65&quot; width=&quot;80&quot; x=&quot;300&quot; y=&quot;20&quot; as=&quot;geometry&quot; /&gt;&#10;        &lt;/mxCell&gt;&#10;        &lt;mxCell id=&quot;USofJIjJ_PWCHfEqHJ_Q-3&quot; parent=&quot;1&quot; style=&quot;verticalLabelPosition=bottom;html=1;verticalAlign=top;aspect=fixed;align=center;pointerEvents=1;shape=mxgraph.cisco.routers.router;fillColor=#0050ef;strokeColor=#001DBC;fontColor=#ffffff;rounded=0;&quot; value=&quot;Router 2&quot; vertex=&quot;1&quot;&gt;&#10;          &lt;mxGeometry height=&quot;65&quot; width=&quot;80&quot; x=&quot;300&quot; y=&quot;140&quot; as=&quot;geometry&quot; /&gt;&#10;        &lt;/mxCell&gt;&#10;        &lt;mxCell id=&quot;USofJIjJ_PWCHfEqHJ_Q-4&quot; parent=&quot;1&quot; style=&quot;verticalLabelPosition=bottom;html=1;verticalAlign=top;aspect=fixed;align=center;pointerEvents=1;shape=mxgraph.cisco.switches.workgroup_switch;fillColor=#60a917;strokeColor=#2D7600;fontColor=#ffffff;rounded=0;&quot; value=&quot;Switch 1&quot; vertex=&quot;1&quot;&gt;&#10;          &lt;mxGeometry height=&quot;40&quot; width=&quot;80&quot; x=&quot;20&quot; y=&quot;300&quot; as=&quot;geometry&quot; /&gt;&#10;        &lt;/mxCell&gt;&#10;        &lt;mxCell id=&quot;USofJIjJ_PWCHfEqHJ_Q-5&quot; parent=&quot;1&quot; style=&quot;verticalLabelPosition=bottom;html=1;verticalAlign=top;aspect=fixed;align=center;pointerEvents=1;shape=mxgraph.cisco.switches.workgroup_switch;fillColor=#60a917;strokeColor=#2D7600;fontColor=#ffffff;rounded=0;&quot; value=&quot;Switch 2&quot; vertex=&quot;1&quot;&gt;&#10;          &lt;mxGeometry height=&quot;40&quot; width=&quot;80&quot; x=&quot;160&quot; y=&quot;300&quot; as=&quot;geometry&quot; /&gt;&#10;        &lt;/mxCell&gt;&#10;        &lt;mxCell id=&quot;USofJIjJ_PWCHfEqHJ_Q-6&quot; parent=&quot;1&quot; style=&quot;verticalLabelPosition=bottom;html=1;verticalAlign=top;aspect=fixed;align=center;pointerEvents=1;shape=mxgraph.cisco.switches.workgroup_switch;fillColor=#60a917;strokeColor=#2D7600;fontColor=#ffffff;rounded=0;&quot; value=&quot;Switch 3&quot; vertex=&quot;1&quot;&gt;&#10;          &lt;mxGeometry height=&quot;40&quot; width=&quot;80&quot; x=&quot;300&quot; y=&quot;300&quot; as=&quot;geometry&quot; /&gt;&#10;        &lt;/mxCell&gt;&#10;        &lt;mxCell id=&quot;USofJIjJ_PWCHfEqHJ_Q-7&quot; parent=&quot;1&quot; style=&quot;verticalLabelPosition=bottom;html=1;verticalAlign=top;aspect=fixed;align=center;pointerEvents=1;shape=mxgraph.cisco.switches.workgroup_switch;fillColor=#f5f5f5;strokeColor=#666666;fontColor=#333333;opacity=50;rounded=0;&quot; value=&quot;Switch 4 (Planned)&quot; vertex=&quot;1&quot;&gt;&#10;          &lt;mxGeometry height=&quot;40&quot; width=&quot;80&quot; x=&quot;440&quot; y=&quot;300&quot; as=&quot;geometry&quot; /&gt;&#10;        &lt;/mxCell&gt;&#10;        &lt;mxCell id=&quot;USofJIjJ_PWCHfEqHJ_Q-8&quot; parent=&quot;1&quot; style=&quot;verticalLabelPosition=bottom;html=1;verticalAlign=top;aspect=fixed;align=center;pointerEvents=1;shape=mxgraph.cisco.switches.workgroup_switch;fillColor=#f5f5f5;strokeColor=#666666;fontColor=#333333;opacity=50;rounded=0;&quot; value=&quot;Switch 5 (Planned)&quot; vertex=&quot;1&quot;&gt;&#10;          &lt;mxGeometry height=&quot;40&quot; width=&quot;80&quot; x=&quot;580&quot; y=&quot;300&quot; as=&quot;geometry&quot; /&gt;&#10;        &lt;/mxCell&gt;&#10;        &lt;mxCell id=&quot;USofJIjJ_PWCHfEqHJ_Q-9&quot; edge=&quot;1&quot; parent=&quot;1&quot; source=&quot;USofJIjJ_PWCHfEqHJ_Q-2&quot; style=&quot;endArrow=none;html=1;strokeWidth=2;rounded=0;&quot; target=&quot;USofJIjJ_PWCHfEqHJ_Q-3&quot; value=&quot;&quot;&gt;&#10;          &lt;mxGeometry height=&quot;50&quot; relative=&quot;1&quot; width=&quot;50&quot; as=&quot;geometry&quot; /&gt;&#10;        &lt;/mxCell&gt;&#10;        &lt;mxCell id=&quot;USofJIjJ_PWCHfEqHJ_Q-10&quot; edge=&quot;1&quot; parent=&quot;1&quot; source=&quot;USofJIjJ_PWCHfEqHJ_Q-3&quot; style=&quot;endArrow=none;html=1;strokeWidth=2;rounded=0;exitX=0;exitY=0.769;exitDx=0;exitDy=0;exitPerimeter=0;&quot; target=&quot;USofJIjJ_PWCHfEqHJ_Q-4&quot; value=&quot;&quot;&gt;&#10;          &lt;mxGeometry height=&quot;50&quot; relative=&quot;1&quot; width=&quot;50&quot; as=&quot;geometry&quot;&gt;&#10;            &lt;mxPoint x=&quot;300&quot; y=&quot;200&quot; as=&quot;sourcePoint&quot; /&gt;&#10;          &lt;/mxGeometry&gt;&#10;        &lt;/mxCell&gt;&#10;        &lt;mxCell id=&quot;USofJIjJ_PWCHfEqHJ_Q-11&quot; edge=&quot;1&quot; parent=&quot;1&quot; source=&quot;USofJIjJ_PWCHfEqHJ_Q-3&quot; style=&quot;endArrow=none;html=1;strokeWidth=2;rounded=0;entryX=0.875;entryY=0;entryDx=0;entryDy=0;entryPerimeter=0;exitX=0.125;exitY=0.923;exitDx=0;exitDy=0;exitPerimeter=0;&quot; target=&quot;USofJIjJ_PWCHfEqHJ_Q-5&quot; value=&quot;&quot;&gt;&#10;          &lt;mxGeometry height=&quot;50&quot; relative=&quot;1&quot; width=&quot;50&quot; as=&quot;geometry&quot;&gt;&#10;            &lt;mxPoint x=&quot;320.17254237288125&quot; y=&quot;200&quot; as=&quot;sourcePoint&quot; /&gt;&#10;            &lt;mxPoint x=&quot;230.00305084745767&quot; y=&quot;295&quot; as=&quot;targetPoint&quot; /&gt;&#10;          &lt;/mxGeometry&gt;&#10;        &lt;/mxCell&gt;&#10;        &lt;mxCell id=&quot;USofJIjJ_PWCHfEqHJ_Q-12&quot; edge=&quot;1&quot; parent=&quot;1&quot; source=&quot;USofJIjJ_PWCHfEqHJ_Q-3&quot; style=&quot;endArrow=none;html=1;strokeWidth=2;rounded=0;&quot; target=&quot;USofJIjJ_PWCHfEqHJ_Q-6&quot; value=&quot;&quot;&gt;&#10;          &lt;mxGeometry height=&quot;50&quot; relative=&quot;1&quot; width=&quot;50&quot; as=&quot;geometry&quot; /&gt;&#10;        &lt;/mxCell&gt;&#10;        &lt;mxCell id=&quot;USofJIjJ_PWCHfEqHJ_Q-13&quot; edge=&quot;1&quot; parent=&quot;1&quot; source=&quot;USofJIjJ_PWCHfEqHJ_Q-3&quot; style=&quot;endArrow=none;html=1;strokeWidth=2;dashed=1;strokeColor=#999999;rounded=0;&quot; target=&quot;USofJIjJ_PWCHfEqHJ_Q-7&quot; value=&quot;Planned&quot;&gt;&#10;          &lt;mxGeometry height=&quot;50&quot; relative=&quot;1&quot; width=&quot;50&quot; as=&quot;geometry&quot; /&gt;&#10;        &lt;/mxCell&gt;&#10;        &lt;mxCell id=&quot;USofJIjJ_PWCHfEqHJ_Q-14&quot; edge=&quot;1&quot; parent=&quot;1&quot; source=&quot;USofJIjJ_PWCHfEqHJ_Q-3&quot; style=&quot;endArrow=none;html=1;strokeWidth=2;dashed=1;strokeColor=#999999;rounded=0;&quot; target=&quot;USofJIjJ_PWCHfEqHJ_Q-8&quot; value=&quot;Planned&quot;&gt;&#10;          &lt;mxGeometry height=&quot;50&quot; relative=&quot;1&quot; width=&quot;50&quot; as=&quot;geometry&quot; /&gt;&#10;        &lt;/mxCell&gt;&#10;        &lt;mxCell id=&quot;USofJIjJ_PWCHfEqHJ_Q-16&quot; parent=&quot;1&quot; style=&quot;rounded=0;whiteSpace=wrap;html=1;fillColor=#CCCCFF;&quot; value=&quot;MY HOMELAB&amp;amp;nbsp;&amp;lt;div&amp;gt;TOPOLOGY&amp;amp;nbsp;&amp;lt;/div&amp;gt;&quot; vertex=&quot;1&quot;&gt;&#10;          &lt;mxGeometry height=&quot;50&quot; width=&quot;130&quot; x=&quot;30&quot; y=&quot;35&quot; as=&quot;geometry&quot; /&gt;&#10;        &lt;/mxCell&gt;&#10;      &lt;/root&gt;&#10;    &lt;/mxGraphModel&gt;&#10;  &lt;/diagram&gt;&#10;&lt;/mxfile&gt;&#10;" resource="https://app.diagrams.net/index.html#HB1naryBloom%2FCCNA-Home-Lab%2Fmain%2Fhomelab-topology.drawio.svg"><defs/><rect fill="#FF9999" width="100%" height="100%" x="0" y="0" style="fill: light-dark(rgb(255, 153, 153), rgb(157, 69, 69));"/><g><g data-cell-id="0"><g data-cell-id="1"><g data-cell-id="USofJIjJ_PWCHfEqHJ_Q-2"><g transform="translate(0.5,0.5)"><rect x="280" y="0" width="80" height="65" fill="none" stroke="none" pointer-events="all"/><path d="M 360 18.86 C 360 29.25 342.16 37.7 319.99 37.7 C 297.84 37.7 280 29.25 280 18.86 C 280 46.16 280 46.16 280 46.16 C 280 56.56 297.84 65 319.99 65 C 342.16 65 360 56.56 360 46.16 Z M 319.99 37.7 C 342.16 37.7 360 29.25 360 18.86 C 360 8.44 342.16 0 319.99 0 C 297.84 0 280 8.44 280 18.86 C 280 29.25 297.84 37.7 319.99 37.7 Z" fill="#0050ef" stroke="#001dbc" stroke-linejoin="round" stroke-miterlimit="10" pointer-events="all" style="fill: light-dark(rgb(0, 80, 239), rgb(109, 178, 255)); stroke: light-dark(rgb(0, 29, 188), rgb(178, 203, 255));"/><path d="M 310.81 11.7 L 314.06 17.55 L 301.62 20.81 L 304.33 18.2 L 285.4 14.29 L 290.27 9.75 L 308.64 13.65 Z M 328.65 26 L 325.94 20.15 L 337.3 16.91 L 335.67 19.5 L 354.05 23.4 L 349.73 27.3 L 330.81 23.4 Z M 322.17 8.44 L 334.59 4.54 L 335.14 10.39 L 331.9 9.75 L 325.94 16.25 L 319.99 14.96 L 325.94 9.11 Z M 316.75 31.85 L 304.86 34.46 L 304.33 27.3 L 308.1 28.61 L 314.59 21.45 L 320.54 22.76 L 313.5 30.56 Z" fill="#ffffff" stroke="none" pointer-events="all" style="fill: light-dark(rgb(255, 255, 255), rgb(18, 18, 18));"/></g><g><g><switch><foreignObject style="overflow: visible; text-align: left;" pointer-events="none" width="100%" height="100%" requiredFeatures="http://www.w3.org/TR/SVG11/feature#Extensibility"><div xmlns="http://www.w3.org/1999/xhtml" style="display: flex; align-items: unsafe flex-start; justify-content: unsafe center; width: 1px; height: 1px; padding-top: 72px; margin-left: 320px;"><div style="box-sizing: border-box; font-size: 0; text-align: center; color: #ffffff; "><div style="display: inline-block; font-size: 12px; font-family: Helvetica; color: light-dark(#ffffff, #121212); line-height: 1.2; pointer-events: all; white-space: nowrap; ">Router 1 (Gateway)</div></div></div></foreignObject><text x="320" y="84" fill="#ffffff" font-family="Helvetica" font-size="12px" text-anchor="middle">Router 1 (Gat...</text></switch></g></g></g><g data-cell-id="USofJIjJ_PWCHfEqHJ_Q-3"><g transform="translate(0.5,0.5)"><rect x="280" y="120" width="80" height="65" fill="none" stroke="none" pointer-events="all"/><path d="M 360 138.86 C 360 149.25 342.16 157.7 319.99 157.7 C 297.84 157.7 280 149.25 280 138.86 C 280 166.16 280 166.16 280 166.16 C 280 176.56 297.84 185 319.99 185 C 342.16 185 360 176.56 360 166.16 Z M 319.99 157.7 C 342.16 157.7 360 149.25 360 138.86 C 360 128.44 342.16 120 319.99 120 C 297.84 120 280 128.44 280 138.86 C 280 149.25 297.84 157.7 319.99 157.7 Z" fill="#0050ef" stroke="#001dbc" stroke-linejoin="round" stroke-miterlimit="10" pointer-events="all" style="fill: light-dark(rgb(0, 80, 239), rgb(109, 178, 255)); stroke: light-dark(rgb(0, 29, 188), rgb(178, 203, 255));"/><path d="M 310.81 131.7 L 314.06 137.55 L 301.62 140.81 L 304.33 138.2 L 285.4 134.29 L 290.27 129.75 L 308.64 133.65 Z M 328.65 146 L 325.94 140.15 L 337.3 136.91 L 335.67 139.5 L 354.05 143.4 L 349.73 147.3 L 330.81 143.4 Z M 322.17 128.44 L 334.59 124.54 L 335.14 130.39 L 331.9 129.75 L 325.94 136.25 L 319.99 134.96 L 325.94 129.11 Z M 316.75 151.85 L 304.86 154.46 L 304.33 147.3 L 308.1 148.61 L 314.59 141.45 L 320.54 142.76 L 313.5 150.56 Z" fill="#ffffff" stroke="none" pointer-events="all" style="fill: light-dark(rgb(255, 255, 255), rgb(18, 18, 18));"/></g><g><g><switch><foreignObject style="overflow: visible; text-align: left;" pointer-events="none" width="100%" height="100%" requiredFeatures="http://www.w3.org/TR/SVG11/feature#Extensibility"><div xmlns="http://www.w3.org/1999/xhtml" style="display: flex; align-items: unsafe flex-start; justify-content: unsafe center; width: 1px; height: 1px; padding-top: 192px; margin-left: 320px;"><div style="box-sizing: border-box; font-size: 0; text-align: center; color: #ffffff; "><div style="display: inline-block; font-size: 12px; font-family: Helvetica; color: light-dark(#ffffff, #121212); line-height: 1.2; pointer-events: all; white-space: nowrap; ">Router 2</div></div></div></foreignObject><text x="320" y="204" fill="#ffffff" font-family="Helvetica" font-size="12px" text-anchor="middle">Router 2</text></switch></g></g></g><g data-cell-id="USofJIjJ_PWCHfEqHJ_Q-4"><g transform="translate(0.5,0.5)"><rect x="0" y="280" width="80" height="40" fill="none" stroke="none" pointer-events="all"/><path d="M 60.31 320 L 60.31 299.79 L 0 299.79 L 0 320 Z M 0 299.79 L 24.29 280 L 80 280 L 59.9 299.79 Z M 60.31 320 L 80 298.1 L 80 280 L 60.31 299.79 Z" fill="#60a917" stroke="#2d7600" stroke-linejoin="round" stroke-miterlimit="10" pointer-events="all" style="fill: light-dark(rgb(96, 169, 23), rgb(74, 137, 12)); stroke: light-dark(rgb(45, 118, 0), rgb(115, 177, 76));"/><rect x="0" y="280" width="0" height="0" fill="none" stroke="#2d7600" pointer-events="all" style="stroke: light-dark(rgb(45, 118, 0), rgb(115, 177, 76));"/><path d="M 35.18 294.73 L 33.92 295.58 L 19.26 295.58 L 17.59 297.26 L 13.41 295.58 L 21.77 293.05 L 20.1 294.73 Z M 46.9 287.15 L 45.65 288.41 L 31 288.41 L 29.31 289.68 L 25.13 288 L 33.51 285.89 L 31.83 287.15 Z M 37.69 292.2 L 38.95 291.37 L 54.03 291.37 L 55.29 289.68 L 59.47 291.37 L 51.52 293.9 L 52.77 292.2 Z M 45.65 284.62 L 46.9 283.79 L 61.57 283.79 L 63.24 282.1 L 67.44 284.21 L 59.05 286.32 L 60.73 284.62 Z" fill="#ffffff" stroke="none" pointer-events="all" style="fill: light-dark(rgb(255, 255, 255), rgb(18, 18, 18));"/></g><g><g><switch><foreignObject style="overflow: visible; text-align: left;" pointer-events="none" width="100%" height="100%" requiredFeatures="http://www.w3.org/TR/SVG11/feature#Extensibility"><div xmlns="http://www.w3.org/1999/xhtml" style="display: flex; align-items: unsafe flex-start; justify-content: unsafe center; width: 1px; height: 1px; padding-top: 327px; margin-left: 40px;"><div style="box-sizing: border-box; font-size: 0; text-align: center; color: #ffffff; "><div style="display: inline-block; font-size: 12px; font-family: Helvetica; color: light-dark(#ffffff, #121212); line-height: 1.2; pointer-events: all; white-space: nowrap; ">Switch 1</div></div></div></foreignObject><text x="40" y="339" fill="#ffffff" font-family="Helvetica" font-size="12px" text-anchor="middle">Switch 1</text></switch></g></g></g><g data-cell-id="USofJIjJ_PWCHfEqHJ_Q-5"><g transform="translate(0.5,0.5)"><rect x="140" y="280" width="80" height="40" fill="none" stroke="none" pointer-events="all"/><path d="M 200.31 320 L 200.31 299.79 L 140 299.79 L 140 320 Z M 140 299.79 L 164.29 280 L 220 280 L 199.9 299.79 Z M 200.31 320 L 220 298.1 L 220 280 L 200.31 299.79 Z" fill="#60a917" stroke="#2d7600" stroke-linejoin="round" stroke-miterlimit="10" pointer-events="all" style="fill: light-dark(rgb(96, 169, 23), rgb(74, 137, 12)); stroke: light-dark(rgb(45, 118, 0), rgb(115, 177, 76));"/><rect x="140" y="280" width="0" height="0" fill="none" stroke="#2d7600" pointer-events="all" style="stroke: light-dark(rgb(45, 118, 0), rgb(115, 177, 76));"/><path d="M 175.18 294.73 L 173.92 295.58 L 159.26 295.58 L 157.59 297.26 L 153.41 295.58 L 161.77 293.05 L 160.1 294.73 Z M 186.9 287.15 L 185.65 288.41 L 171 288.41 L 169.31 289.68 L 165.13 288 L 173.51 285.89 L 171.83 287.15 Z M 177.69 292.2 L 178.95 291.37 L 194.03 291.37 L 195.29 289.68 L 199.47 291.37 L 191.52 293.9 L 192.77 292.2 Z M 185.65 284.62 L 186.9 283.79 L 201.57 283.79 L 203.24 282.1 L 207.44 284.21 L 199.05 286.32 L 200.73 284.62 Z" fill="#ffffff" stroke="none" pointer-events="all" style="fill: light-dark(rgb(255, 255, 255), rgb(18, 18, 18));"/></g><g><g><switch><foreignObject style="overflow: visible; text-align: left;" pointer-events="none" width="100%" height="100%" requiredFeatures="http://www.w3.org/TR/SVG11/feature#Extensibility"><div xmlns="http://www.w3.org/1999/xhtml" style="display: flex; align-items: unsafe flex-start; justify-content: unsafe center; width: 1px; height: 1px; padding-top: 327px; margin-left: 180px;"><div style="box-sizing: border-box; font-size: 0; text-align: center; color: #ffffff; "><div style="display: inline-block; font-size: 12px; font-family: Helvetica; color: light-dark(#ffffff, #121212); line-height: 1.2; pointer-events: all; white-space: nowrap; ">Switch 2</div></div></div></foreignObject><text x="180" y="339" fill="#ffffff" font-family="Helvetica" font-size="12px" text-anchor="middle">Switch 2</text></switch></g></g></g><g data-cell-id="USofJIjJ_PWCHfEqHJ_Q-6"><g transform="translate(0.5,0.5)"><rect x="280" y="280" width="80" height="40" fill="none" stroke="none" pointer-events="all"/><path d="M 340.31 320 L 340.31 299.79 L 280 299.79 L 280 320 Z M 280 299.79 L 304.29 280 L 360 280 L 339.9 299.79 Z M 340.31 320 L 360 298.1 L 360 280 L 340.31 299.79 Z" fill="#60a917" stroke="#2d7600" stroke-linejoin="round" stroke-miterlimit="10" pointer-events="all" style="fill: light-dark(rgb(96, 169, 23), rgb(74, 137, 12)); stroke: light-dark(rgb(45, 118, 0), rgb(115, 177, 76));"/><rect x="280" y="280" width="0" height="0" fill="none" stroke="#2d7600" pointer-events="all" style="stroke: light-dark(rgb(45, 118, 0), rgb(115, 177, 76));"/><path d="M 315.18 294.73 L 313.92 295.58 L 299.26 295.58 L 297.59 297.26 L 293.41 295.58 L 301.77 293.05 L 300.1 294.73 Z M 326.9 287.15 L 325.65 288.41 L 311 288.41 L 309.31 289.68 L 305.13 288 L 313.51 285.89 L 311.83 287.15 Z M 317.69 292.2 L 318.95 291.37 L 334.03 291.37 L 335.29 289.68 L 339.47 291.37 L 331.52 293.9 L 332.77 292.2 Z M 325.65 284.62 L 326.9 283.79 L 341.57 283.79 L 343.24 282.1 L 347.44 284.21 L 339.05 286.32 L 340.73 284.62 Z" fill="#ffffff" stroke="none" pointer-events="all" style="fill: light-dark(rgb(255, 255, 255), rgb(18, 18, 18));"/></g><g><g><switch><foreignObject style="overflow: visible; text-align: left;" pointer-events="none" width="100%" height="100%" requiredFeatures="http://www.w3.org/TR/SVG11/feature#Extensibility"><div xmlns="http://www.w3.org/1999/xhtml" style="display: flex; align-items: unsafe flex-start; justify-content: unsafe center; width: 1px; height: 1px; padding-top: 327px; margin-left: 320px;"><div style="box-sizing: border-box; font-size: 0; text-align: center; color: #ffffff; "><div style="display: inline-block; font-size: 12px; font-family: Helvetica; color: light-dark(#ffffff, #121212); line-height: 1.2; pointer-events: all; white-space: nowrap; ">Switch 3</div></div></div></foreignObject><text x="320" y="339" fill="#ffffff" font-family="Helvetica" font-size="12px" text-anchor="middle">Switch 3</text></switch></g></g></g><g data-cell-id="USofJIjJ_PWCHfEqHJ_Q-7"><g transform="translate(0.5,0.5)"><rect x="420" y="280" width="80" height="40" fill="none" stroke="none" pointer-events="all"/><path d="M 480.31 320 L 480.31 299.79 L 420 299.79 L 420 320 Z M 420 299.79 L 444.29 280 L 500 280 L 479.9 299.79 Z M 480.31 320 L 500 298.1 L 500 280 L 480.31 299.79 Z" fill-opacity="0.5" fill="#f5f5f5" stroke="#666666" stroke-opacity="0.5" stroke-linejoin="round" stroke-miterlimit="10" pointer-events="all" style="fill: light-dark(rgb(245, 245, 245), rgb(26, 26, 26)); stroke: light-dark(rgb(102, 102, 102), rgb(149, 149, 149));"/><rect x="420" y="280" width="0" height="0" fill="none" stroke="#666666" stroke-opacity="0.5" pointer-events="all" style="stroke: light-dark(rgb(102, 102, 102), rgb(149, 149, 149));"/><path d="M 455.18 294.73 L 453.92 295.58 L 439.26 295.58 L 437.59 297.26 L 433.41 295.58 L 441.77 293.05 L 440.1 294.73 Z M 466.9 287.15 L 465.65 288.41 L 451 288.41 L 449.31 289.68 L 445.13 288 L 453.51 285.89 L 451.83 287.15 Z M 457.69 292.2 L 458.95 291.37 L 474.03 291.37 L 475.29 289.68 L 479.47 291.37 L 471.52 293.9 L 472.77 292.2 Z M 465.65 284.62 L 466.9 283.79 L 481.57 283.79 L 483.24 282.1 L 487.44 284.21 L 479.05 286.32 L 480.73 284.62 Z" fill-opacity="0.5" fill="#ffffff" stroke="none" pointer-events="all" style="fill: light-dark(rgb(255, 255, 255), rgb(18, 18, 18));"/></g><g><g><switch><foreignObject style="overflow: visible; text-align: left;" pointer-events="none" width="100%" height="100%" requiredFeatures="http://www.w3.org/TR/SVG11/feature#Extensibility"><div xmlns="http://www.w3.org/1999/xhtml" style="display: flex; align-items: unsafe flex-start; justify-content: unsafe center; width: 1px; height: 1px; padding-top: 327px; margin-left: 460px;"><div style="box-sizing: border-box; font-size: 0; text-align: center; color: #333333; "><div style="display: inline-block; font-size: 12px; font-family: Helvetica; color: light-dark(#333333, #c1c1c1); line-height: 1.2; pointer-events: all; white-space: nowrap; ">Switch 4 (Planned)</div></div></div></foreignObject><text x="460" y="339" fill="#333333" font-family="Helvetica" font-size="12px" text-anchor="middle">Switch 4 (Pla...</text></switch></g></g></g><g data-cell-id="USofJIjJ_PWCHfEqHJ_Q-8"><g transform="translate(0.5,0.5)"><rect x="560" y="280" width="80" height="40" fill="none" stroke="none" pointer-events="all"/><path d="M 620.31 320 L 620.31 299.79 L 560 299.79 L 560 320 Z M 560 299.79 L 584.29 280 L 640 280 L 619.9 299.79 Z M 620.31 320 L 640 298.1 L 640 280 L 620.31 299.79 Z" fill-opacity="0.5" fill="#f5f5f5" stroke="#666666" stroke-opacity="0.5" stroke-linejoin="round" stroke-miterlimit="10" pointer-events="all" style="fill: light-dark(rgb(245, 245, 245), rgb(26, 26, 26)); stroke: light-dark(rgb(102, 102, 102), rgb(149, 149, 149));"/><rect x="560" y="280" width="0" height="0" fill="none" stroke="#666666" stroke-opacity="0.5" pointer-events="all" style="stroke: light-dark(rgb(102, 102, 102), rgb(149, 149, 149));"/><path d="M 595.18 294.73 L 593.92 295.58 L 579.26 295.58 L 577.59 297.26 L 573.41 295.58 L 581.77 293.05 L 580.1 294.73 Z M 606.9 287.15 L 605.65 288.41 L 591 288.41 L 589.31 289.68 L 585.13 288 L 593.51 285.89 L 591.83 287.15 Z M 597.69 292.2 L 598.95 291.37 L 614.03 291.37 L 615.29 289.68 L 619.47 291.37 L 611.52 293.9 L 612.77 292.2 Z M 605.65 284.62 L 606.9 283.79 L 621.57 283.79 L 623.24 282.1 L 627.44 284.21 L 619.05 286.32 L 620.73 284.62 Z" fill-opacity="0.5" fill="#ffffff" stroke="none" pointer-events="all" style="fill: light-dark(rgb(255, 255, 255), rgb(18, 18, 18));"/></g><g><g><switch><foreignObject style="overflow: visible; text-align: left;" pointer-events="none" width="100%" height="100%" requiredFeatures="http://www.w3.org/TR/SVG11/feature#Extensibility"><div xmlns="http://www.w3.org/1999/xhtml" style="display: flex; align-items: unsafe flex-start; justify-content: unsafe center; width: 1px; height: 1px; padding-top: 327px; margin-left: 600px;"><div style="box-sizing: border-box; font-size: 0; text-align: center; color: #333333; "><div style="display: inline-block; font-size: 12px; font-family: Helvetica; color: light-dark(#333333, #c1c1c1); line-height: 1.2; pointer-events: all; white-space: nowrap; ">Switch 5 (Planned)</div></div></div></foreignObject><text x="600" y="339" fill="#333333" font-family="Helvetica" font-size="12px" text-anchor="middle">Switch 5 (Pla...</text></switch></g></g></g><g data-cell-id="USofJIjJ_PWCHfEqHJ_Q-9"><g><path d="M 320 65 L 320 120" fill="none" stroke="#000000" stroke-width="2" stroke-miterlimit="10" pointer-events="stroke" style="stroke: light-dark(rgb(0, 0, 0), rgb(255, 255, 255));"/></g></g><g data-cell-id="USofJIjJ_PWCHfEqHJ_Q-10"><g><path d="M 280 169.99 L 76.92 280" fill="none" stroke="#000000" stroke-width="2" stroke-miterlimit="10" pointer-events="stroke" style="stroke: light-dark(rgb(0, 0, 0), rgb(255, 255, 255));"/></g></g><g data-cell-id="USofJIjJ_PWCHfEqHJ_Q-11"><g><path d="M 290 180 L 210 280" fill="none" stroke="#000000" stroke-width="2" stroke-miterlimit="10" pointer-events="stroke" style="stroke: light-dark(rgb(0, 0, 0), rgb(255, 255, 255));"/></g></g><g data-cell-id="USofJIjJ_PWCHfEqHJ_Q-12"><g><path d="M 320 185 L 320 280" fill="none" stroke="#000000" stroke-width="2" stroke-miterlimit="10" pointer-events="stroke" style="stroke: light-dark(rgb(0, 0, 0), rgb(255, 255, 255));"/></g></g><g data-cell-id="USofJIjJ_PWCHfEqHJ_Q-13"><g><path d="M 350.85 185 L 441.02 280" fill="none" stroke="#999999" stroke-width="2" stroke-miterlimit="10" stroke-dasharray="6 6" pointer-events="stroke" style="stroke: light-dark(rgb(153, 153, 153), rgb(106, 106, 106));"/></g><g><g><switch><foreignObject style="overflow: visible; text-align: left;" pointer-events="none" width="100%" height="100%" requiredFeatures="http://www.w3.org/TR/SVG11/feature#Extensibility"><div xmlns="http://www.w3.org/1999/xhtml" style="display: flex; align-items: unsafe center; justify-content: unsafe center; width: 1px; height: 1px; padding-top: 232px; margin-left: 396px;"><div style="box-sizing: border-box; font-size: 0; text-align: center; color: #000000; background-color: #ffffff; "><div style="display: inline-block; font-size: 11px; font-family: Helvetica; color: light-dark(#000000, #ffffff); line-height: 1.2; pointer-events: all; background-color: light-dark(#ffffff, var(--ge-dark-color, #121212)); white-space: nowrap; ">Planned</div></div></div></foreignObject><text x="396" y="235" fill="light-dark(#000000, #ffffff)" font-family="Helvetica" font-size="11px" text-anchor="middle">Planned</text></switch></g></g></g><g data-cell-id="USofJIjJ_PWCHfEqHJ_Q-14"><g><path d="M 360 173.57 L 562.03 280" fill="none" stroke="#999999" stroke-width="2" stroke-miterlimit="10" stroke-dasharray="6 6" pointer-events="stroke" style="stroke: light-dark(rgb(153, 153, 153), rgb(106, 106, 106));"/></g><g><g><switch><foreignObject style="overflow: visible; text-align: left;" pointer-events="none" width="100%" height="100%" requiredFeatures="http://www.w3.org/TR/SVG11/feature#Extensibility"><div xmlns="http://www.w3.org/1999/xhtml" style="display: flex; align-items: unsafe center; justify-content: unsafe center; width: 1px; height: 1px; padding-top: 227px; margin-left: 461px;"><div style="box-sizing: border-box; font-size: 0; text-align: center; color: #000000; background-color: #ffffff; "><div style="display: inline-block; font-size: 11px; font-family: Helvetica; color: light-dark(#000000, #ffffff); line-height: 1.2; pointer-events: all; background-color: light-dark(#ffffff, var(--ge-dark-color, #121212)); white-space: nowrap; ">Planned</div></div></div></foreignObject><text x="461" y="230" fill="light-dark(#000000, #ffffff)" font-family="Helvetica" font-size="11px" text-anchor="middle">Planned</text></switch></g></g></g><g data-cell-id="USofJIjJ_PWCHfEqHJ_Q-16"><g transform="translate(0.5,0.5)"><rect x="10" y="15" width="130" height="50" fill="#ccccff" stroke="#000000" pointer-events="all" style="fill: light-dark(rgb(204, 204, 255), rgb(56, 56, 100)); stroke: light-dark(rgb(0, 0, 0), rgb(255, 255, 255));"/></g><g><g><switch><foreignObject style="overflow: visible; text-align: left;" pointer-events="none" width="100%" height="100%" requiredFeatures="http://www.w3.org/TR/SVG11/feature#Extensibility"><div xmlns="http://www.w3.org/1999/xhtml" style="display: flex; align-items: unsafe center; justify-content: unsafe center; width: 128px; height: 1px; padding-top: 40px; margin-left: 11px;"><div style="box-sizing: border-box; font-size: 0; text-align: center; color: #000000; "><div style="display: inline-block; font-size: 12px; font-family: Helvetica; color: light-dark(#000000, #ffffff); line-height: 1.2; pointer-events: all; white-space: normal; word-wrap: normal; ">MY HOMELAB <div>TOPOLOGY </div></div></div></div></foreignObject><text x="75" y="44" fill="light-dark(#000000, #ffffff)" font-family="Helvetica" font-size="12px" text-anchor="middle">MY HOMELAB...</text></switch></g></g></g></g></g></g><switch><g requiredFeatures="http://www.w3.org/TR/SVG11/feature#Extensibility"/><a transform="translate(0,-5)" xlink:href="https://www.drawio.com/doc/faq/svg-export-text-problems" target="_blank"><text text-anchor="middle" font-size="10px" x="50%" y="100%">Text is not SVG - cannot display</text></a></switch></svg>